<?xml version="1.0" encoding="UTF-8" standalone="no"?>
<!-- Created with Inkscape (http://www.inkscape.org/) -->

<svg
   width="1024"
   height="1024"
   viewBox="0 0 270.93333 270.93333"
   version="1.1"
   id="svg1"
   inkscape:version="1.3.2 (091e20e, 2023-11-25, custom)"
   sodipodi:docname="splatapult.svg"
   xmlns:inkscape="http://www.inkscape.org/namespaces/inkscape"
   xmlns:sodipodi="http://sodipodi.sourceforge.net/DTD/sodipodi-0.dtd"
   xmlns="http://www.w3.org/2000/svg"
   xmlns:svg="http://www.w3.org/2000/svg">
  <sodipodi:namedview
     id="namedview1"
     pagecolor="#ffffff"
     bordercolor="#111111"
     borderopacity="1"
     inkscape:showpageshadow="0"
     inkscape:pageopacity="0"
     inkscape:pagecheckerboard="1"
     inkscape:deskcolor="#d1d1d1"
     inkscape:document-units="mm"
     inkscape:zoom="0.70710678"
     inkscape:cx="389.61583"
     inkscape:cy="408.70772"
     inkscape:window-width="2137"
     inkscape:window-height="1715"
     inkscape:window-x="892"
     inkscape:window-y="204"
     inkscape:window-maximized="0"
     inkscape:current-layer="layer1" />
  <defs
     id="defs1">
    <filter
       inkscape:collect="always"
       style="color-interpolation-filters:sRGB"
       id="filter11"
       x="-0.30976053"
       y="-0.59620579"
       width="1.6195211"
       height="2.1924116">
      <feGaussianBlur
         inkscape:collect="always"
         stdDeviation="10.669316"
         id="feGaussianBlur11" />
    </filter>
  </defs>
  <g
     inkscape:label="Layer 1"
     inkscape:groupmode="layer"
     id="layer1">
    <path
       id="rect1"
       style="fill:#000000;stroke-width:0.272404"
       d="m 101.74963,218.70394 a 35.113503,35.113503 0 0 1 1.04298,8.48917 35.113503,35.113503 0 0 1 -2.01194,11.47297 h 68.68615 a 35.113503,35.113503 0 0 1 -0.95662,-7.75027 35.113503,35.113503 0 0 1 2.28778,-12.21187 z" />
    <rect
       style="fill:#000000;stroke-width:0.349968"
       id="rect2"
       width="20.338289"
       height="89.43808"
       x="128.44719"
       y="148.24701" />
    <path
       id="rect3"
       style="fill:#000000;stroke-width:0.371616"
       d="m 98.868146,117.64857 -8.255448,8.25546 84.114132,84.11409 a 35.113503,35.113503 0 0 1 8.13349,-8.37737 z" />
    <path
       style="fill:#000000;stroke-width:0.371616"
       id="path3"
       sodipodi:type="arc"
       sodipodi:cx="91.618088"
       sodipodi:cy="110.70809"
       sodipodi:rx="32.269779"
       sodipodi:ry="30.64818"
       sodipodi:start="0.78539816"
       sodipodi:end="3.9496801"
       sodipodi:arc-type="slice"
       d="M 114.43627,132.37963 A 32.269779,30.64818 0 0 1 83.030552,140.25112 32.269779,30.64818 0 0 1 60.325111,118.19174 32.269779,30.64818 0 0 1 69.323465,88.550464 L 91.618088,110.70809 Z" />
    <circle
       style="fill:#000000;fill-opacity:0;stroke-width:0.371616"
       id="path6"
       cx="208.0488"
       cy="-292.65121"
       r="33.242737"
       transform="scale(1,-1)" />
    <ellipse
       style="fill:#000000;fill-opacity:0;stroke-width:0.371616"
       id="path7"
       cx="89.672226"
       cy="302.54297"
       rx="37.458885"
       ry="25.945553" />
    <ellipse
       style="fill:#000000;fill-opacity:0;stroke-width:0.371616"
       id="path8"
       cx="47.510685"
       cy="286.81351"
       rx="20.594278"
       ry="15.72949" />
    <circle
       style="fill:#000000;fill-opacity:1;stroke-width:0.331292"
       id="path1-1"
       cx="204.16791"
       cy="229.9447"
       r="28.090805" />
    <circle
       style="fill:#000000;fill-opacity:1;stroke-width:0.331292"
       id="path1"
       cx="67.829659"
       cy="229.9445"
       r="28.090805" />
    <circle
       style="fill:#ffffff;fill-opacity:1;stroke-width:0.371616"
       id="path2"
       cx="138.32013"
       cy="166.1667"
       r="5.6755886" />
    <circle
       style="fill:#ffffff;fill-opacity:1;stroke-width:0.371616"
       id="path2-1"
       cx="204.54364"
       cy="229.77493"
       r="5.6755886" />
    <circle
       style="fill:#ffffff;fill-opacity:1;stroke-width:0.371616"
       id="path2-1-2"
       cx="67.593109"
       cy="229.49104"
       r="5.6755886" />
    <ellipse
       style="fill:none;fill-opacity:1;stroke:#000000;stroke-width:1.31432;stroke-dasharray:none;stroke-opacity:1"
       id="path4"
       cx="104.54683"
       cy="139.28862"
       rx="51.031708"
       ry="26.825027"
       transform="matrix(0.86089546,-0.50878189,0.49126921,0.87100778,0,0)" />
    <ellipse
       style="opacity:1;fill:#000000;fill-opacity:1;stroke:none;stroke-width:1.05833;stroke-dasharray:none;stroke-opacity:1;filter:url(#filter11)"
       id="path4-1"
       cx="96.023849"
       cy="118.94038"
       rx="41.332508"
       ry="21.47443"
       transform="matrix(1.0629154,-0.62817401,0.61367453,1.0880293,-16.551459,-1.0324348)" />
  </g>
</svg>
